# xmcd
#
# Track frame offsets: 
#        150
#        14238
#        29935
#        44105
#        60380
#        72120
#        85983
#        100880
#        117585
#        134853
#        151405
#        165733
#        183698
#        204493
#        221928
#        241128
#        252480
#        270240
#        275743
#        295650
#        299748
#
# Disc length: 4154 seconds
#
# Revision: 5
# Processed by: cddbd v1.5.2PL0 Copyright (c) Steve Scherf et al.
# Submitted via: ExactAudioCopyFreeDBPlugin 1.0
#
DISCID=62103815
DTITLE=Mississippi John Hurt - The Best Of Mississippi John Hurt
DYEAR=1987
DGENRE=Blues
TTITLE0=Here Am I, Oh Lord, Send Me
TTITLE1=I Shall Not Be Moved
TTITLE2=Nearer My God To Thee
TTITLE3=Baby What's Wrong With You
TTITLE4=It Ain't Nobody's Business
TTITLE5=Salty Dog Blues
TTITLE6=Coffee Blues
TTITLE7=Avalon, My Home Town
TTITLE8=Make Me A Pallet On The Floor
TTITLE9=Since I've Laid This Burden Down
TTITLE10=Sliding Delta
TTITLE11=Monday Morning Blues
TTITLE12=Richland Women Blues
TTITLE13=Candy Man
TTITLE14=Stagolee
TTITLE15=My Creole Belle
TTITLE16=C.C. Rider
TTITLE17=Spanish Fandango
TTITLE18=Talking Casey
TTITLE19=Chicken
TTITLE20=You Are My Sunshine
EXTD=
EXTT0=
EXTT1=
EXTT2=
EXTT3=
EXTT4=
EXTT5=
EXTT6=
EXTT7=
EXTT8=
EXTT9=
EXTT10=
EXTT11=
EXTT12=
EXTT13=
EXTT14=
EXTT15=
EXTT16=
EXTT17=
EXTT18=
EXTT19=
EXTT20=
PLAYORDER=
